<svg xmlns="http://www.w3.org/2000/svg" fill="none" viewBox="0 0 217 217">
  <path fill="#FF7B7C" fill-rule="evenodd" d="M108.19 9.98c-54.23 0-98.21 43.96-98.21 98.21 0 54.25 43.98 98.21 98.21 98.21s98.21-43.96 98.21-98.21c0-54.23-43.98-98.21-98.21-98.21ZM.02 108.19C.02 48.44 48.46.02 108.2.02c59.73 0 108.17 48.44 108.17 108.17 0 59.75-48.44 108.17-108.17 108.17C48.46 216.36.02 167.94.02 108.19Z" clip-rule="evenodd"/>
  <path fill="#FF7B7C" fill-rule="evenodd" d="m150.9 82.42-27.3-1.14 18.55-20.07-7.47-7.45-20.1 18.48-1.1-27.29h-10.53l-1.13 27.29L81.74 53.7l-7.45 7.47 18.5 20.1-27.3 1.07v10.55l27.28 1.14-18.54 20.08 7.47 7.44 19.78-18.2.87 44.22-15.79 1.15v9.82l16.03 1.22.3 15.35h10.54l.32-15.34 16.19-1.23v-9.82l-15.95-1.15.9-44.2 19.75 18.22 7.45-7.45-18.48-20.1 27.28-1.09V82.42Z" clip-rule="evenodd"/>
</svg>
